<svg width="267" height="538" viewBox="0 0 267 538" fill="none" xmlns="http://www.w3.org/2000/svg">
<path d="M260.2 500.68H260.42C260.42 500.68 225.33 404.25 215.5 391.18C215.5 391.18 205.21 385.1 205.68 374.81L193.05 313.53C193.05 313.53 193.24 313.34 193.56 312.99L193.83 312.69L194.14 312.33C195.824 310.33 197.233 308.113 198.33 305.74L198.53 305.28C199 304.205 199.394 303.099 199.71 301.97C200.145 302.126 200.607 302.194 201.069 302.17C201.531 302.146 201.983 302.03 202.4 301.83C202.4 301.83 202.4 301.5 202.4 300.91C202.4 300.91 202.28 297.28 202.27 291.6C202.27 290.02 202.27 288.3 202.27 286.47C202.66 285.06 202.99 283.58 203.27 282L202.76 281.76V281.53L202.33 281.33C202.68 267.88 203.82 250.69 207.11 238.98C207.223 238.567 207.343 238.157 207.47 237.75C211.36 224.96 211.47 209.35 212.47 196.15C213.246 197.808 213.914 199.515 214.47 201.26C214.963 200.706 215.532 200.224 216.16 199.83L220.08 231.2V268.2C220.08 268.2 213.53 315.92 234.08 307.03C254.63 298.14 239.69 265.39 239.69 265.39C239.69 265.39 239.69 247.15 242.5 237.79C244.35 231.63 243.16 211.71 242.12 198.79C244.12 199.14 245.3 199.42 245.3 199.42C245.755 197.545 245.96 195.619 245.91 193.69C246.34 172.12 219.74 137.37 208.91 124.11C205.824 119.376 201.506 115.573 196.42 113.11L175.61 103.03C175.61 103.03 165.78 100.63 161.95 93.03C161.95 92.9 161.88 92.77 161.85 92.64C162.283 92.4467 162.71 92.2367 163.13 92.01C166.308 90.4811 169.092 88.2437 171.27 85.47C175.7 79.84 177.82 72.79 179.84 65.92C182.22 57.84 184.62 49.59 184.3 41.17C183.98 32.75 180.44 24 173.3 19.53C167.2 15.71 158.69 14.99 154.9 8.86997C153.9 7.21997 153.26 5.25997 151.9 3.92997C151.915 3.6554 151.83 3.38476 151.661 3.16792C151.492 2.95107 151.25 2.80265 150.98 2.74998L140.5 0.689981C140.353 0.660899 140.201 0.661124 140.054 0.690638C139.907 0.720151 139.768 0.778377 139.643 0.861978C139.519 0.94558 139.412 1.05291 139.329 1.17784C139.246 1.30276 139.189 1.44281 139.16 1.58998V1.73998C129.788 2.00007 120.59 4.33619 112.23 8.57998C109.26 10.0146 106.411 11.6867 103.71 13.58C99.86 16.3 96.07 19.91 95.52 24.58C95.25 26.91 95.81 29.3 95.34 31.58C94.07 37.69 85.88 41.67 87.08 47.8C87.89 51.96 92.6 53.75 97.01 53.8C95.7829 58.1855 95.4706 62.7766 96.0926 67.2879C96.7145 71.7992 98.2573 76.1345 100.625 80.0245C102.993 83.9144 106.136 87.276 109.857 89.9003C113.579 92.5247 117.801 94.3558 122.26 95.28C125.468 99.7952 128.278 104.58 130.66 109.58C125.27 114.7 113.98 126.58 120.9 130.58L106.5 166.16L107.9 202.83L101.83 208.25L103.16 209.91C96.36 217.83 80.62 235.14 69.11 239.75C67.453 240.415 65.8485 241.204 64.31 242.11C62.2082 243.444 59.8688 244.361 57.42 244.81C56.351 244.927 55.2939 245.134 54.26 245.43L51.51 239.73C51.276 239.244 50.9485 238.81 50.5463 238.451C50.1441 238.092 49.675 237.816 49.166 237.639C48.657 237.461 48.1181 237.386 47.58 237.417C47.0419 237.448 46.5151 237.585 46.03 237.82L44.34 238.63L40.34 240.56L38.67 241.37L37.41 241.98C36.4319 242.453 35.6814 243.294 35.3233 244.32C34.9652 245.345 35.0288 246.471 35.5 247.45L38.83 254.35C34.1 258.52 31.78 263.5 38.23 268.14C40.7069 269.953 43.7111 270.902 46.78 270.84L48.78 275.03C49.014 275.516 49.3415 275.95 49.7437 276.309C50.1459 276.668 50.6149 276.944 51.1239 277.121C51.6329 277.299 52.1719 277.374 52.71 277.343C53.2481 277.312 53.7749 277.175 54.26 276.94L57.19 275.52L62.87 272.78C63.3555 272.546 63.7902 272.218 64.149 271.816C64.5079 271.414 64.7839 270.945 64.9613 270.436C65.1387 269.927 65.214 269.388 65.1829 268.85C65.1518 268.312 65.0149 267.785 64.78 267.3L63.12 263.85C66.8365 260.962 70.2416 257.694 73.28 254.1C73.28 254.1 81.82 248.75 86.85 247.55C90.18 246.76 101.85 239.09 109.09 234.23L111.15 288.23C110.696 288.932 110.166 289.583 109.57 290.17L111.18 289.03V289.43C110.964 289.69 110.734 289.937 110.49 290.17L111.19 289.67V290.32C110.962 290.594 110.719 290.855 110.46 291.1L111.2 290.58L111.5 296.25L115.02 290.41L115.24 296.25L116.06 294.89C106.18 311.68 93.31 336.4 86.43 361.27C86.43 361.27 75.67 379.98 77.07 399.16L57.42 494.16L57.8 494.3C51.4 498.92 37.91 507.39 24.68 507.73C24.68 507.73 -7.13 506.79 1.76 513.81C10.65 520.83 89.71 531.12 89.71 531.12L92.71 507.47L93.41 507.73C93.41 507.73 93.41 507.6 93.41 507.36L94.41 507.73C94.41 507.73 92.5 495.97 99.5 489.42C106.5 482.87 122.89 416.42 121.5 406.15C121.5 406.15 134.06 374.76 149.78 349.73L168.26 397.25L188.84 432.8C188.84 432.8 216.22 493.68 215.34 507.24C209.59 514.24 199.34 525.24 191.65 524.95C191.65 524.95 160.31 531.03 181.83 536.65C203.35 542.27 266.5 521.25 266.5 521.25L260.2 500.68ZM123.2 283.02L123.39 282.91C122.39 284.42 121.39 286.09 120.25 287.91L123.2 283.02Z" fill="url(#paint0_linear)"/>
<path d="M109.57 290.19C108.8 290.75 108.38 291.06 108.38 291.06C108.817 290.83 109.218 290.536 109.57 290.19Z" fill="url(#paint1_linear)"/>
<path d="M110.5 291.13C109.73 291.69 109.31 292 109.31 292C109.747 291.77 110.148 291.476 110.5 291.13Z" fill="url(#paint2_linear)"/>
<path d="M110.5 290.19C109.73 290.75 109.31 291.06 109.31 291.06C109.747 290.83 110.148 290.536 110.5 290.19Z" fill="url(#paint3_linear)"/>
<path d="M217.55 495.75C217.55 495.75 201.13 519.01 190.18 518.55C190.18 518.55 159.62 524.48 180.6 529.95C201.58 535.42 263.15 514.9 263.15 514.9L255.83 491.05L217.55 495.75Z" fill="#333333"/>
<path d="M144.12 334.25L167.38 394L187.5 428.71C187.5 428.71 215.09 490.05 213.27 501.91L257.27 494.84C257.27 494.84 223.06 400.84 213.49 388.12C213.49 388.12 203.49 382.19 203.91 372.12L191.6 312.37C191.6 312.37 203.6 300.81 196.88 286.37C196.54 285.63 196.147 284.883 195.7 284.13C186.5 268.62 151.88 277.25 151.88 277.25L144.12 334.25Z" fill="#535461"/>
<path opacity="0.03" d="M144.12 334.25L167.38 394L187.5 428.71C187.5 428.71 215.09 490.05 213.27 501.91L257.27 494.84C257.27 494.84 223.06 400.84 213.49 388.12C213.49 388.12 203.49 382.19 203.91 372.12L191.6 312.37C191.6 312.37 203.6 300.81 196.88 286.37C196.54 285.63 196.147 284.883 195.7 284.13C186.5 268.62 151.88 277.25 151.88 277.25L144.12 334.25Z" fill="black"/>
<g opacity="0.1">
<path opacity="0.1" d="M213.45 388.12C213.45 388.12 203.45 382.19 203.87 372.12L191.56 312.37C191.56 312.37 203.56 300.81 196.84 286.37C196.5 285.63 196.107 284.883 195.66 284.13C191.24 276.61 180.8 274.77 171.23 274.88C180.41 274.96 190.07 276.97 194.29 284.13C194.737 284.883 195.13 285.63 195.47 286.37C202.16 300.85 190.19 312.37 190.19 312.37L202.5 372.15C202.04 382.15 212.08 388.15 212.08 388.15C221.66 400.92 255.86 494.87 255.86 494.87L213.24 501.72C213.24 501.79 213.24 501.87 213.24 501.94L257.24 494.87C257.24 494.87 223.03 400.89 213.45 388.12Z" fill="black"/>
</g>
<path d="M63.4001 485.72C63.4001 485.72 45.1601 501.23 27.4001 501.72C27.4001 501.72 -3.59988 500.81 5.05012 507.65C13.7001 514.49 90.7901 524.53 90.7901 524.53L94.2201 497.84L63.4001 485.72Z" fill="#333333"/>
<g opacity="0.1">
<path opacity="0.1" d="M130.44 273.64C130.44 273.64 100.34 316.06 88.4402 358.93C88.4402 358.93 77.9502 377.17 79.3202 395.87L60.2002 488.46L95.3202 501.69C95.3202 501.69 93.5002 490.29 100.32 483.9C107.14 477.51 123.12 412.75 121.76 402.72C121.76 402.72 143.65 347.99 165.54 326.55C187.43 305.11 198.33 300.17 201.54 281.66C201.56 281.66 150.05 256.76 130.44 273.64Z" fill="black"/>
</g>
<path d="M129.5 273.64C129.5 273.64 99.4002 316.06 87.5002 358.93C87.5002 358.93 77.0102 377.17 78.3802 395.87L59.2202 488.46L94.3402 501.69C94.3402 501.69 92.5202 490.29 99.3402 483.9C106.16 477.51 122.14 412.75 120.78 402.72C120.78 402.72 142.67 347.99 164.56 326.55C186.45 305.11 197.35 300.17 200.56 281.66C200.65 281.66 149.14 256.76 129.5 273.64Z" fill="#535461"/>
<g opacity="0.1">
<path opacity="0.1" d="M148.97 267.32C171.58 267.59 199.74 281.2 199.74 281.2C196.52 299.71 185.63 304.65 163.74 326.09C141.85 347.53 119.95 402.25 119.95 402.25C121.32 412.25 105.36 477.05 98.5101 483.43C92.5101 488.99 93.1701 498.34 93.4201 500.68L94.8601 501.22C94.8601 501.22 93.0401 489.82 99.8601 483.43C106.68 477.04 122.69 412.25 121.32 402.25C121.32 402.25 143.21 347.52 165.1 326.08C186.99 304.64 197.89 299.7 201.1 281.19C201.11 281.25 171.79 267.04 148.97 267.32Z" fill="black"/>
</g>
<path d="M107.18 207.51C107.18 207.51 85.4102 234.62 70.7202 240.51C69.1047 241.158 67.5402 241.927 66.0402 242.81C63.99 244.11 61.7084 245.003 59.3202 245.44C57.5626 245.611 55.844 246.063 54.2302 246.78C46.5902 250.3 28.9702 259.78 40.6002 268.18C55.1902 278.67 74.8102 254.5 74.8102 254.5C74.8102 254.5 83.1402 249.28 88.0402 248.11C92.9402 246.94 115.39 231.25 115.39 231.25L107.18 207.51Z" fill="#FDA57D"/>
<path d="M111.28 202.03L102.62 209.79L115.39 225.75L111.28 202.03Z" fill="#4D8AF0"/>
<g opacity="0.1">
<path opacity="0.1" d="M111.28 202.03L102.62 209.79L115.39 225.75L111.28 202.03Z" fill="black"/>
</g>
<path d="M133.24 111.25C133.24 111.25 112.48 129.04 121.17 134.05L107.17 168.71L112 295.5L131.79 262.66L118.27 191.51C118.27 191.51 114.41 149.09 125.51 139.06L136.13 118.06L133.24 111.25Z" fill="#4D8AF0"/>
<g opacity="0.1">
<path opacity="0.1" d="M136.89 111.25C136.89 111.25 116.13 129.04 124.82 134.05L110.82 168.71L115.65 295.5L135.44 262.66L121.92 191.51C121.92 191.51 118.06 149.09 129.16 139.06L139.78 118.06L136.89 111.25Z" fill="black"/>
</g>
<path d="M117.21 92.57C117.21 92.57 134.09 113.09 133.63 124.95C133.17 136.81 165.56 104.43 165.56 104.43C165.56 104.43 153.25 89.38 156.44 73.43C159.63 57.48 117.21 92.57 117.21 92.57Z" fill="#FDA57D"/>
<path d="M213.45 195.65L218.01 232.14V268.14C218.01 268.14 211.62 314.66 231.69 306C251.76 297.34 237.16 265.41 237.16 265.41C237.16 265.41 237.16 247.62 239.9 238.5C242.64 229.38 238.5 189.25 238.5 189.25L213.45 195.65Z" fill="#FDA57D"/>
<path d="M150.96 109.45C150.96 109.45 138.65 121.31 132.26 117.2L123.5 138.97C118.146 152.278 115.718 166.581 116.38 180.91L119.5 263.15L133.18 261.33L137.74 183.33L144.58 135.9L150.96 109.45Z" fill="#F2F2F2"/>
<g opacity="0.1">
<path opacity="0.1" d="M161.23 96.91C161.23 96.91 145.03 108.08 140.5 117.66C140.5 117.66 140.04 128.15 136.4 132.71C132.76 137.27 129.1 160.08 128.19 187.44C127.28 214.8 123.19 251.29 123.19 251.29C123.19 251.29 116.35 286.86 109.05 290.51C109.05 290.51 142.8 264.97 159.22 273.63C175.64 282.29 194.34 303.28 199.81 300.08C199.81 300.08 198.49 260.08 204.48 238.79C204.593 238.383 204.71 237.987 204.83 237.6C211.22 216.6 207.11 187.89 214.41 175.6C214.41 175.6 214.41 153.31 210.2 136.66C209.111 132.409 207.106 128.447 204.325 125.053C201.544 121.658 198.054 118.913 194.1 117.01L173.82 107.19C173.82 107.19 163.05 105.57 161.23 96.91Z" fill="black"/>
</g>
<g opacity="0.1">
<path opacity="0.1" d="M161.23 96.91C161.23 96.91 145.95 109 141.39 118.57C141.39 118.57 140.93 129.06 137.29 133.62C133.65 138.18 129.99 160.99 129.08 188.35C128.17 215.71 124.08 252.2 124.08 252.2C124.08 252.2 117.24 287.77 109.94 291.42C109.94 291.42 143.69 265.88 160.11 274.54C176.53 283.2 195.23 304.19 200.7 300.99C200.7 300.99 199.38 260.99 205.37 239.7C205.483 239.293 205.6 238.897 205.72 238.51C212.11 217.51 208 188.8 215.3 176.51C215.3 176.51 215.3 154.22 211.09 137.57C210.002 133.319 207.996 129.357 205.215 125.963C202.434 122.568 198.944 119.823 194.99 117.92L174.71 108.1C174.71 108.1 163.05 105.57 161.23 96.91Z" fill="black"/>
</g>
<path d="M161 96.68C161 96.68 145.95 108.08 141.39 117.68C141.39 117.68 140.93 128.17 137.29 132.73C133.65 137.29 129.99 160.1 129.08 187.46C128.17 214.82 124.08 251.31 124.08 251.31C124.08 251.31 117.24 286.88 109.94 290.53C109.94 290.53 143.69 264.99 160.11 273.65C176.53 282.31 195.2 303.25 200.68 300.09C200.68 300.09 199.36 260.09 205.35 238.8C205.463 238.393 205.58 237.997 205.7 237.61C212.09 216.61 207.98 187.9 215.28 175.61C215.28 175.61 215.28 153.32 211.07 136.67C209.982 132.419 207.976 128.457 205.195 125.063C202.414 121.668 198.924 118.923 194.97 117.02L174.69 107.2C174.69 107.2 164.42 104.66 161 96.68Z" fill="#4D8AF0"/>
<g opacity="0.1">
<path opacity="0.1" d="M202.73 123.36C202.73 123.36 249.02 176.04 242.64 201.12C242.64 201.12 218.92 195.65 212.54 202.94C212.54 202.94 207.54 186.06 192.47 176.49C177.4 166.92 163.5 105.57 202.73 123.36Z" fill="black"/>
</g>
<path d="M202.73 122.45C202.73 122.45 249.02 175.13 242.64 200.21C242.64 200.21 218.92 194.74 212.54 202.03C212.54 202.03 207.54 185.15 192.47 175.58C177.4 166.01 163.5 104.66 202.73 122.45Z" fill="#4D8AF0"/>
<g opacity="0.1">
<path opacity="0.1" d="M157.58 83.68C156.86 80 157.46 79.68 158.26 75.68C161.45 59.68 119.04 94.84 119.04 94.84C119.04 94.84 121.4 97.71 124.33 101.93C126.492 102.376 128.693 102.6 130.9 102.6C142.5 102.61 151.85 92.82 157.58 83.68Z" fill="black"/>
</g>
<path d="M129.07 100.32C146.953 100.32 161.45 85.823 161.45 67.94C161.45 50.057 146.953 35.56 129.07 35.56C111.187 35.56 96.6899 50.057 96.6899 67.94C96.6899 85.823 111.187 100.32 129.07 100.32Z" fill="#FDA57D"/>
<g opacity="0.1">
<path opacity="0.1" d="M99.9801 59.08C95.2101 59.72 89.1301 58.08 88.2101 53.41C87.0501 47.41 95.0301 43.56 96.2701 37.6C96.7301 35.36 96.1801 33.03 96.4501 30.77C96.9901 26.2 100.68 22.69 104.45 20.03C116.347 11.6854 130.818 7.83027 145.29 9.14997C147.098 9.17292 148.858 9.72957 150.35 10.75C151.92 12.04 152.53 14.14 153.6 15.87C157.3 21.87 165.6 22.54 171.54 26.26C178.54 30.61 181.95 39.15 182.26 47.35C182.57 55.55 180.26 63.6 177.91 71.48C175.91 78.18 173.91 85.06 169.55 90.54C165.19 96.02 158.06 99.86 151.27 98.21C154.38 95.97 152.12 90.77 148.75 88.94C145.38 87.11 141.2 86.8 138.32 84.28C135.44 81.76 134.58 77.64 133.64 73.89C132.46 69.16 130.74 64.36 127.29 60.89C120.5 54.14 108.29 57.96 99.9801 59.08Z" fill="black"/>
</g>
<path d="M100.89 58.63C96.1202 59.27 90.0402 57.63 89.1202 52.96C87.9602 46.96 95.9402 43.11 97.1802 37.15C97.6402 34.91 97.0902 32.58 97.3602 30.32C97.9002 25.75 101.59 22.24 105.36 19.58C117.257 11.2354 131.728 7.38029 146.2 8.69999C148.008 8.72294 149.768 9.27959 151.26 10.3C152.83 11.59 153.44 13.69 154.51 15.42C158.21 21.42 166.51 22.09 172.45 25.81C179.45 30.16 182.86 38.7 183.17 46.9C183.48 55.1 181.17 63.15 178.82 71.03C176.82 77.73 174.82 84.61 170.46 90.09C166.1 95.57 158.97 99.41 152.18 97.76C155.29 95.52 153.03 90.32 149.66 88.49C146.29 86.66 142.11 86.35 139.23 83.83C136.35 81.31 135.5 77.19 134.5 73.44C133.32 68.71 131.6 63.91 128.15 60.44C121.42 53.68 109.2 57.51 100.89 58.63Z" fill="#72351C"/>
<path d="M148.62 25.77L151.55 10.77C151.579 10.6261 151.579 10.4779 151.551 10.334C151.522 10.19 151.465 10.0532 151.383 9.93136C151.302 9.80954 151.196 9.70514 151.074 9.62423C150.952 9.54332 150.814 9.48751 150.67 9.46L140.32 7.46C140.176 7.43096 140.028 7.43073 139.884 7.45933C139.74 7.48794 139.603 7.54479 139.481 7.62663C139.36 7.70847 139.255 7.81366 139.174 7.93611C139.093 8.05856 139.038 8.19583 139.01 8.33999L136.08 23.34L126.08 60.42L144.43 64L148.62 25.77Z" fill="#CBDAE3"/>
<g opacity="0.1">
<path opacity="0.1" d="M133.4 84.59C142.214 84.59 149.36 77.4445 149.36 68.63C149.36 59.8155 142.214 52.67 133.4 52.67C124.585 52.67 117.44 59.8155 117.44 68.63C117.44 77.4445 124.585 84.59 133.4 84.59Z" fill="black"/>
</g>
<path d="M133.4 85.04C142.214 85.04 149.36 77.8945 149.36 69.08C149.36 60.2655 142.214 53.12 133.4 53.12C124.585 53.12 117.44 60.2655 117.44 69.08C117.44 77.8945 124.585 85.04 133.4 85.04Z" fill="#CBDAE3"/>
<path d="M133.4 79.54C139.177 79.54 143.86 74.8569 143.86 69.08C143.86 63.3031 139.177 58.62 133.4 58.62C127.623 58.62 122.94 63.3031 122.94 69.08C122.94 74.8569 127.623 79.54 133.4 79.54Z" fill="#E9E9E9"/>
<path d="M133.4 72.27C135.162 72.27 136.59 70.8418 136.59 69.08C136.59 67.3182 135.162 65.89 133.4 65.89C131.638 65.89 130.21 67.3182 130.21 69.08C130.21 70.8418 131.638 72.27 133.4 72.27Z" fill="#F48681"/>
<path opacity="0.05" d="M148.886 24.4088L136.353 21.9612L136.265 22.4127L148.798 24.8603L148.886 24.4088Z" fill="black"/>
<path d="M43.1726 241.069L43.1636 241.074C39.3081 242.932 37.6895 247.565 39.5483 251.42L49.259 271.562C51.1179 275.417 55.7503 277.036 59.6058 275.177L59.6148 275.172C63.4703 273.314 65.0889 268.681 63.2301 264.826L53.5194 244.684C51.6605 240.829 47.0281 239.21 43.1726 241.069Z" fill="#CBDAE3"/>
<g opacity="0.1">
<path opacity="0.1" d="M43.1726 241.069L43.1636 241.074C39.3081 242.932 37.6895 247.565 39.5483 251.42L49.259 271.562C51.1179 275.417 55.7503 277.036 59.6058 275.177L59.6148 275.172C63.4703 273.314 65.0889 268.681 63.2301 264.826L53.5194 244.684C51.6605 240.829 47.0281 239.21 43.1726 241.069Z" fill="black"/>
</g>
<defs>
<linearGradient id="paint0_linear" x1="0.15" y1="269.15" x2="266.5" y2="269.15" gradientUnits="userSpaceOnUse">
<stop stop-color="#808080" stop-opacity="0.25"/>
<stop offset="0.54" stop-color="#808080" stop-opacity="0.12"/>
<stop offset="1" stop-color="#808080" stop-opacity="0.1"/>
</linearGradient>
<linearGradient id="paint1_linear" x1="725.849" y1="695.936" x2="727.265" y2="695.936" gradientUnits="userSpaceOnUse">
<stop stop-color="#808080" stop-opacity="0.25"/>
<stop offset="0.54" stop-color="#808080" stop-opacity="0.12"/>
<stop offset="1" stop-color="#808080" stop-opacity="0.1"/>
</linearGradient>
<linearGradient id="paint2_linear" x1="727.886" y1="697.685" x2="729.314" y2="697.685" gradientUnits="userSpaceOnUse">
<stop stop-color="#808080" stop-opacity="0.25"/>
<stop offset="0.54" stop-color="#808080" stop-opacity="0.12"/>
<stop offset="1" stop-color="#808080" stop-opacity="0.1"/>
</linearGradient>
<linearGradient id="paint3_linear" x1="727.886" y1="695.936" x2="729.314" y2="695.936" gradientUnits="userSpaceOnUse">
<stop stop-color="#808080" stop-opacity="0.25"/>
<stop offset="0.54" stop-color="#808080" stop-opacity="0.12"/>
<stop offset="1" stop-color="#808080" stop-opacity="0.1"/>
</linearGradient>
</defs>
</svg>
